<svg id="Layer_1" data-name="Layer 1" xmlns="http://www.w3.org/2000/svg" viewBox="0 0 50 50"><defs><style>.cls-1,.cls-2{fill:#1d1d1b;}.cls-1{stroke:#1d1d1b;stroke-miterlimit:10;stroke-width:5px;}</style></defs><path class="cls-1" d="M437.72,250.59a190.93,190.93,0,0,0-42.11-39.93C363.3,188.57,320.44,178.89,283,193.22a104.3,104.3,0,0,0-34.07,21.61c-11.31-25.84-32.77-46.33-59.8-55.26C157,149,123.3,156.49,96.19,175.68c-12.91,9.14-25.83,19.86-36.4,31.65C48.43,220,46.31,235.11,54.5,250.2,67.89,274.89,96,292.28,121.86,301c28.82,9.71,60.89,10,89.6-.17,26,24,61.34,37.63,96.86,36.37,21.75-.78,44.35-5.7,65.14-12,19-5.72,36.47-15.06,50.16-29.6a103.27,103.27,0,0,0,15.57-21.46c1.86-3.43,4.77-8,5.27-11.9C445,258,440.16,253.7,437.72,250.59ZM172.38,167.46a87.87,87.87,0,0,1,66.91,54.46,6.33,6.33,0,0,0,1,1.76,172.81,172.81,0,0,0-20.18,28.67,7.64,7.64,0,0,0-1,.53c-13.52,9.1-34.07,15.67-47,1.73-5.42-5.85-5.09-13.93-8.88-20.61s-10.39-9.57-17.65-10.53c-5.86-.77-16.58.86-20.72-4.49-2.29-3-1.57-8.16-2.48-11.62a27.73,27.73,0,0,0-22.32-20.11C121.24,172,145.73,163,172.38,167.46ZM204.16,291c-43.83,13.7-94.47,2.06-127.1-30.73-9.61-9.66-21.33-24.23-13.64-38.32,3.07-5.64,8.12-10,12.76-14.35,1.57-1.47,3.16-2.93,4.75-4.38a4.84,4.84,0,0,0,4.17-.93c6.66-4.8,15.31-5.36,21.53.56s3.76,13.8,7.42,20.7c3.29,6.19,9.8,9.21,16.45,10.32,6.36,1.07,16.79-.91,21.56,4.38,2.7,3,3.1,7.72,4.25,11.39a33.25,33.25,0,0,0,4.62,9.62,36.28,36.28,0,0,0,16.34,12.39c11,4.39,22.74,3.12,33.45-1.05-2.25,4.77-4.37,9.58-6.37,14.37a4.65,4.65,0,0,0,.18,4.44A5.75,5.75,0,0,0,204.16,291Zm202,5c-13.35,10.89-29.59,16.74-46.12,20.84-18.06,4.48-36.81,8.72-55.49,8.83a125.43,125.43,0,0,1-46-8.68,123.92,123.92,0,0,1-40.12-25.52,5.26,5.26,0,0,0-2.92-3.24l.06-.12c12-28.71,28.43-58.49,55.11-75.66a6.24,6.24,0,0,0,2.2.55c8,.53,15,4.87,21.09,9.83A128.51,128.51,0,0,1,312,240c11,13.24,13.24,31,15.17,47.49.87,7.38,12.56,7.47,11.69,0-2.33-19.93-5.3-39.88-18.6-55.76-8.83-10.54-20.63-21.88-34-27.3,33.95-13.42,73.16-4.11,102.71,15.8,16.73,11.27,31.05,26,43.13,42.1A92.17,92.17,0,0,1,406.19,295.94Z"/><path class="cls-2" d="M268.31,368.86c-50.88,0-103.31-7.32-147.21-20.79-55.2-16.93-94.42-42.6-110.44-72.29l1-.56C27.57,304.64,66.54,330.11,121.44,347,172.68,362.67,235.58,370,294,367.05c47.43-2.39,90.22-11.29,123.74-25.72,37.49-16.13,62.34-38.36,73.86-66.06l1.08.45c-11.64,28-36.7,50.43-74.48,66.69-33.64,14.48-76.58,23.41-124.15,25.8Q281.31,368.86,268.31,368.86Z"/><path class="cls-2" d="M268.31,361.36c-42,0-82.94-4.49-123.57-14.54q-14.3-3.54-28.33-8.1-7.26-2.39-14.42-5.07c-2.06-.78-4.11-1.57-6.14-2.39-1.13-.45-2.26-.91-3.38-1.38-.12,0-1.63-.68-1-.39.52.21-1.13-.49-1.3-.57-15.66-6.77-30.87-14.92-44.52-25.2l-1-.79c.84.64.23.18-.26-.21-.82-.65-1.65-1.32-2.47-2q-2.39-2-4.7-4.05c-2.86-2.59-5.62-5.3-8.22-8.15-1.28-1.39-2.52-2.83-3.72-4.29-.33-.4-2.06-2.66-.9-1.09-.54-.74-1.09-1.46-1.62-2.2a84,84,0,0,1-5.62-9l-2.7,10.26,1-.55L5.21,279c14.35,26.36,41.29,44.39,67.67,57.12C107.75,353,145.79,362.82,184,368.66a541.11,541.11,0,0,0,122.35,5.12c37.43-2.83,75.34-9.46,110.18-23.83,30.83-12.73,61-31.94,77.35-62a114.43,114.43,0,0,0,5-10.7l-9.22,5.24,1.08.44-5.24-9.22c.68-1.62-.34.73-.48,1-.34.76-.69,1.5-1.05,2.25q-1.1,2.22-2.29,4.4a98.18,98.18,0,0,1-5.28,8.52c-.85,1.22-1.72,2.41-2.61,3.6s-.18.22,0,0l-.8,1c-.61.76-1.23,1.5-1.86,2.24-2.2,2.59-4.53,5.07-7,7.46-2.59,2.54-5.3,5-8.1,7.28-.72.6-1.44,1.18-2.17,1.76l-1.1.87c.11-.09.8-.61.11-.1q-2.43,1.84-4.94,3.58a174.55,174.55,0,0,1-20.56,12.23c-3.75,1.92-7.56,3.71-11.42,5.4-.22.1-3,1.3-1.7.75l-2.65,1.09c-1.8.73-3.6,1.44-5.42,2.12-7.43,2.82-15,5.28-22.63,7.46a369.68,369.68,0,0,1-51.34,10.59c.19,0,.71-.1-.17,0l-2.16.28-3.93.48q-4,.46-7.93.87-7.85.78-15.73,1.31-17,1.14-34,1.13c-3.93,0-7.69,3.44-7.5,7.5a7.63,7.63,0,0,0,7.5,7.5c38.5,0,77.45-3.93,114.7-13.95,31.9-8.59,63.93-22,88.57-44.56a114,114,0,0,0,28.35-40.13c1.71-4.06-1.9-7.85-5.23-9.23l-1.08-.45c-4.07-1.69-7.83,1.9-9.23,5.24.65-1.55-.28.61-.47,1-.34.75-.7,1.5-1.06,2.24q-1.22,2.51-2.58,4.93a100.11,100.11,0,0,1-5.71,9c-.49.68-1,1.36-1.5,2-.16.23-.86,1.12,0,0-.26.34-.52.67-.79,1q-1.71,2.14-3.54,4.2c-2.41,2.72-5,5.32-7.62,7.81q-4.28,4-8.9,7.58c.93-.72-.93.7-1.3,1-.77.57-1.54,1.13-2.32,1.68q-2.69,1.9-5.43,3.69A189,189,0,0,1,420.4,332c-2,.93-4,1.84-6,2.71l-.79.34-.75.31c-1,.42-2,.82-3,1.22q-5.8,2.31-11.7,4.33c-8.16,2.81-16.45,5.23-24.81,7.33a384.4,384.4,0,0,1-54.53,9.45,525.08,525.08,0,0,1-119-1.81c-8.48-1.07-18.44-2.62-27.62-4.33s-18.47-3.69-27.61-6c-8.95-2.23-17.83-4.73-26.6-7.57q-6.93-2.25-13.77-4.77-3.12-1.16-6.22-2.38l-3-1.21L93.43,329c-.25-.11-1.67-.7-.81-.33a221,221,0,0,1-43-23.56c-1.42-1-2.83-2.06-4.22-3.12,1.28,1-1-.8-1.26-1-.74-.59-1.48-1.19-2.21-1.8q-4-3.34-7.72-7c-2.28-2.25-4.48-4.58-6.56-7-.49-.57-1-1.15-1.44-1.73-.25-.29-2-2.48-.73-.88-.94-1.23-1.85-2.47-2.73-3.75a85,85,0,0,1-4.55-7.41c-2-3.65-6.78-4.57-10.26-2.7l-1,.56c-3.64,2-4.57,6.8-2.69,10.26,15,27.58,43.57,46.17,71.3,59.1,37.7,17.58,78.63,27.28,119.71,32.78a555.4,555.4,0,0,0,73.12,4.92c3.92,0,7.68-3.46,7.5-7.5A7.63,7.63,0,0,0,268.31,361.36Z"/><path class="cls-2" d="M288.47,100.17c14.22-17.46,6.26-40-10.72-52-5.26-3.73-10.26,4.94-5.05,8.63C281.5,63,288,73.48,285.53,84.58c-1.25,5.67-5,9.54-8.73,13.78a74.77,74.77,0,0,0-9.46,13.43c-9.52,17.56-13.6,42.15,6.58,53.83,5.58,3.23,10.62-5.41,5.05-8.63-10.59-6.14-11.08-17.41-7.94-28.14C274.39,117.38,281.1,109.23,288.47,100.17Z"/><path class="cls-2" d="M288.47,100.17a32.45,32.45,0,0,0,6-11.67l.54-2.13a31.86,31.86,0,0,0,0-10.89C293,64.6,285.56,55.07,276.09,49.61c-1.65-.82-3.17,1.52-2.84,3,.21,1.18.9,1.4,1.87,2.08l1,.67c12.21,8.16,19.29,24.83,11,38.23-3.46,5.53-7.46,9.1-10.85,14.21-6.09,8.85-10.51,19.13-11.62,29.78-1,8.86,1.84,18.1,9.11,23.61.59.52,1.32,1,1.95,1.45a1.84,1.84,0,0,0,1.09.41c1.53-.31,2.64-2.53,1.21-3.75l-.23-.21-.48-.36c-9.82-6.5-10.74-18.31-7.36-28.66,3.4-11.53,11-20.87,18.56-29.93Zm0,0c-7.38,9-14.75,18.72-17.1,30.31-2.14,9.09-.75,19.75,8.42,24.16l.44.25.67.42a7,7,0,0,1,3,4.08c1.65,6.63-5.33,12.57-11.56,9.27a31.28,31.28,0,0,1-17-21.67c-3.23-16.2,2.83-32.45,12-45.47,3.81-5.76,10-10.33,12.85-16.28,2.28-5.55,1.33-11.63-1.8-17.2a31.11,31.11,0,0,0-6.2-7.7c-1.35-1.17-3-2.42-3.75-4.23a8.19,8.19,0,0,1,1.77-9.1,6.37,6.37,0,0,1,8.4-.76l.31.21.22.19a62.35,62.35,0,0,1,5,4.72c12.77,13.37,16.71,33.9,4.28,48.8Z"/><path class="cls-2" d="M240.59,109.08c5.14-10.72,1.1-23.26-8.56-29.81-5.34-3.63-10.35,5-5.05,8.63A13.71,13.71,0,0,1,232.61,102c-1.27,5.64-6.19,10.17-8.34,15.54a37.1,37.1,0,0,0,3.63,34.06c3.55,5.33,12.21.33,8.63-5.05a27.53,27.53,0,0,1-4.57-19.7C233.09,119.84,237.64,115.22,240.59,109.08Z"/><path class="cls-2" d="M240.59,109.08c5-10.34.5-23.08-9.54-28.38a3.35,3.35,0,0,0-1.06-.29,2,2,0,0,0-1.81.83c-.74,1-1,2.58-.11,3.46a4,4,0,0,0,.71.43l.61.37c8.21,5,10.27,15.92,5.46,24.17-2,4-4.69,7.12-6,11.12a37.14,37.14,0,0,0,2.44,28.78l0,.11,0,.06a.48.48,0,0,1,.07.16s.07,0,.09.1c.28.37.71.39,1.27.37,1.09-.16,2.27-1.09,1.72-2.26-3.93-7.5-5.32-16.77-2.16-24.77,2-5.15,5.79-9.3,8.19-14.26Zm0,0c-3.1,6.38-8.3,12.37-8.11,19.8a24.37,24.37,0,0,0,4.77,14.6c.89,1.25,2.1,2.45,2.54,4.07a7,7,0,0,1-1.27,6.43,8.78,8.78,0,0,1-12.65,1.24,27.69,27.69,0,0,1-3.85-5.09,38.51,38.51,0,0,1-2.9-34.44c1.88-5.15,7.3-10.35,8.85-14.65,1.24-3.22,0-7.85-2.75-10.31a8.12,8.12,0,0,1-2.52-10c1.49-3.38,5.71-5.58,9.15-3.69.27.15.88.58,1.14.74a27.89,27.89,0,0,1,7.62,9.86,25.14,25.14,0,0,1,0,21.39Z"/><path class="cls-2" d="M329.37,116.55c7.9-9.19,7.05-20.25,1.4-30.41-3.13-5.62-11.77-.58-8.64,5,3.36,6,4.87,12.55.17,18.29-4.07,5-8.75,8.83-11.57,14.76-4.71,9.9-6.05,24.07,4.17,31,5.36,3.6,10.37-5.06,5.05-8.63-4.57-3.08-2.81-11.17-1.31-15.41C320.79,125.06,325.3,121.28,329.37,116.55Z"/><path class="cls-2" d="M329.37,116.55c7.55-8.58,6.51-20.2.22-29.13a2.68,2.68,0,0,0-2.73-1.54c-1.29.22-2.7,1.52-2.36,2.79a2.35,2.35,0,0,0,.5.88l.76,1.16c4.36,6.5,5.58,14.89.63,21.57-2.44,3.43-5.51,6.58-7.93,9.84A32.15,32.15,0,0,0,313,134.31c-1.57,6.58-1.19,13.75,4.3,18.28.49.54,1.22.15,1.75-.4a2.82,2.82,0,0,0-.2-4.07c-4.27-3.57-3.23-9.63-1.81-14.17,1.92-7.15,7.56-12.12,12.35-17.4Zm0,0c-3.43,4-7.46,7.75-9.49,12.73-1.59,4.37-2.9,10.37-.31,14.46a4.16,4.16,0,0,0,1.43,1.2,7.49,7.49,0,0,1,2.64,2.55,8.12,8.12,0,0,1-2.57,10.63c-3.82,2.54-8.13.59-11.25-2.13A21,21,0,0,1,303,144.85c-3-12.23,1.88-25.25,10.75-33.69.9-.91,4.08-4.08,4.88-5,3.34-3.22,2.64-8.29,1.07-12.33-.69-1.72-1.47-3.48-1.18-5.46.5-6.3,9.68-9.67,13.26-3.93,5.32,10.34,5.71,23.08-2.37,32.1Z"/></svg>