<svg width="123" height="64" viewBox="0 0 123 64" fill="none" xmlns="http://www.w3.org/2000/svg">
<path fill-rule="evenodd" clip-rule="evenodd" d="M97 0.5C93.5593 0.5 90.7126 3.10533 90.3879 6.4592C80.1554 9.17786 72.452 18.0546 71.5819 28.8589L71.58 28.8857L71.5718 29.0165C71.5244 29.355 71.5 29.6999 71.5 30.05C71.5 32.7713 72.9655 35.1433 75.1481 36.4432L77.8683 50.5987L21.5648 50.0869L12.105 40.4535L0.453471 51.895L11.895 63.5465L21.5284 54.0867L120.982 54.9908L121.018 50.991L116.065 50.946L118.852 36.4431C121.035 35.1431 122.5 32.7711 122.5 30.05C122.5 29.7107 122.477 29.3763 122.433 29.049C121.639 18.1588 113.903 9.19213 103.612 6.4606C103.288 3.10606 100.441 0.5 97 0.5ZM113.016 50.9182L115.599 37.4765C115.528 37.482 115.456 37.4866 115.385 37.4902C115.257 37.4967 115.129 37.4999 115 37.4999C114.691 37.4999 114.387 37.4813 114.088 37.4453C112.222 37.2203 110.565 36.3141 109.379 34.9821C109.246 34.8337 109.12 34.6799 109 34.5212C108.912 34.6376 108.82 34.7514 108.726 34.8624C108.649 34.9521 108.571 35.0399 108.49 35.1258C107.283 36.4133 105.622 37.2744 103.765 37.4616C103.513 37.4869 103.258 37.4999 103 37.4999C102.701 37.4999 102.405 37.4824 102.115 37.4484C100.234 37.2285 98.5634 36.3168 97.3713 34.9739C97.2417 34.828 97.1178 34.6769 96.9999 34.5211C95.7737 36.142 93.8982 37.2475 91.7623 37.4618C91.5116 37.487 91.2573 37.4999 91 37.4999C90.6947 37.4999 90.3936 37.4817 90.0977 37.4465C88.2989 37.2319 86.6926 36.3841 85.5153 35.1316C85.333 34.9375 85.1609 34.7338 85 34.5212C83.7741 36.1411 81.8994 37.2465 79.7649 37.4616C79.5133 37.4869 79.2581 37.4999 79 37.4999C78.7986 37.4999 78.599 37.492 78.4016 37.4765L80.9285 50.6265L113.016 50.9182ZM74.5733 29.0865C75.3334 19.7179 81.9433 11.9702 90.7935 9.4588C91.7505 11.9437 94.175 13.7 97 13.7C99.8246 13.7 102.249 11.9442 103.206 9.45993C112.13 11.9892 118.777 19.8467 119.445 29.3236L119.48 29.9597C119.484 30.0167 119.49 30.0727 119.499 30.1276C119.469 31.8734 118.419 33.3838 116.903 34.084L116.89 34.0901C116.317 34.3525 115.678 34.4999 115 34.4999C114.844 34.4999 114.69 34.4921 114.538 34.4768C113.482 34.3706 112.538 33.9047 111.829 33.2071C111.085 32.4762 110.6 31.4911 110.514 30.3988L110.501 30.1267C110.5 30.1076 110.5 30.0885 110.5 30.0693L110.505 29.8757C110.528 29.0682 109.907 28.3879 109.101 28.337C108.294 28.286 107.593 28.8827 107.513 29.6866C107.501 29.8062 107.5 29.9251 107.5 29.9946C107.499 30.0085 107.498 30.0224 107.498 30.0364L107.485 30.4097C107.301 32.6894 105.374 34.4999 103 34.4999C102.844 34.4999 102.69 34.4921 102.538 34.4768C101.487 34.3711 100.546 33.9088 99.838 33.2163C99.0893 32.4845 98.5999 31.4956 98.5137 30.3988L98.5007 30.1267L98.5001 30.0809L98.5 30.05C98.5 29.2458 97.8658 28.5847 97.0624 28.5513C96.2589 28.5179 95.572 29.124 95.5052 29.9254L95.5022 29.9614C95.5001 29.9863 95.4986 30.0114 95.4978 30.0364L95.4879 30.3368C95.3626 32.2803 93.9739 33.8953 92.1122 34.3631C91.7569 34.4524 91.3843 34.4999 91 34.4999C90.8439 34.4999 90.6898 34.4921 90.5379 34.4768C89.4384 34.3662 88.4595 33.8651 87.7409 33.1184C87.047 32.3972 86.5959 31.4469 86.5136 30.3979L86.5007 30.1269L86.5001 30.0788L86.5 30.05C86.5 29.2216 85.8284 28.55 85 28.55C84.2071 28.55 83.5579 29.1652 83.5037 29.9444C83.501 29.9732 83.4991 30.0022 83.498 30.0315L83.4833 30.4355C83.3949 31.4514 82.9604 32.3729 82.2951 33.0806C81.5877 33.8329 80.6195 34.3437 79.5286 34.4696C79.3553 34.4896 79.1789 34.4999 79 34.4999C78.922 34.4999 78.8444 34.4979 78.7674 34.4941C76.3796 34.3742 74.5 32.4195 74.5 30.05C74.5 29.8257 74.5167 29.6063 74.5486 29.3922C74.555 29.3498 74.5595 29.3071 74.5621 29.2643L74.5733 29.0865ZM100.643 7.1C100.643 7.16176 100.641 7.22318 100.638 7.28421C100.541 9.17629 98.9606 10.7 97 10.7C95.1388 10.7 93.62 9.32689 93.3878 7.56903C93.3859 7.52971 93.3825 7.49019 93.3774 7.45052C93.3642 7.34722 93.3571 7.2304 93.3571 7.1C93.3571 5.1236 94.9762 3.5 97 3.5C99.0238 3.5 100.643 5.1236 100.643 7.1ZM85.6546 41.2875L86.5118 48.0876L89.4882 47.7124L88.6311 40.9123L85.6546 41.2875ZM106.226 40.9123L105.369 47.7124L108.345 48.0876L109.202 41.2875L106.226 40.9123ZM95.9287 41.0999V47.9H98.9287V41.0999H95.9287ZM8.43368 15.7273H6.53738V23H8.02885V18.2486H8.08922L9.97132 22.9645H10.9869L12.8691 18.2663H12.9294V23H14.4209V15.7273H12.5246L10.5218 20.6136H10.4365L8.43368 15.7273ZM15.2936 23H16.9413L17.4808 21.3416H20.1067L20.6452 23H22.2929L19.7858 15.7273H17.8042L15.2936 23ZM19.717 20.1413L18.8234 17.3892H18.7666L17.8713 20.1413H19.717ZM23.1682 15.7273V23H24.7059V20.642H25.9985C26.5572 20.642 27.0331 20.5391 27.426 20.3331C27.8214 20.1271 28.1233 19.8395 28.3316 19.4702C28.5399 19.1009 28.6441 18.6747 28.6441 18.1918C28.6441 17.7088 28.5411 17.2827 28.3351 16.9134C28.1315 16.5417 27.8356 16.2517 27.4474 16.0433C27.0591 15.8326 26.5892 15.7273 26.0376 15.7273H23.1682ZM24.7059 19.4098H25.7499C26.0458 19.4098 26.2897 19.3589 26.4814 19.2571C26.6756 19.1529 26.82 19.0097 26.9147 18.8274C27.0117 18.6428 27.0603 18.4309 27.0603 18.1918C27.0603 17.9503 27.0117 17.7396 26.9147 17.5597C26.82 17.3774 26.6756 17.2365 26.4814 17.1371C26.2873 17.0353 26.0411 16.9844 25.7428 16.9844H24.7059V19.4098ZM30.4276 21.8494V23.0994H30.9745C31.3722 23.0994 31.699 23.0284 31.9546 22.8864C32.2103 22.7443 32.4198 22.5573 32.5832 22.3253C32.7489 22.0933 32.8921 21.8423 33.0129 21.5724L35.52 15.7273H33.9504L32.5193 19.3068L30.8076 15.7273H29.2167L31.8588 20.9616L31.77 21.1996C31.7203 21.344 31.6587 21.4647 31.5853 21.5618C31.5143 21.6565 31.4184 21.7287 31.2977 21.7784C31.1769 21.8258 31.0183 21.8494 30.8218 21.8494H30.4276ZM40.7739 18.2734H42.3293C42.2796 17.852 42.1659 17.478 41.9884 17.1513C41.8132 16.8246 41.5859 16.5488 41.3066 16.3239C41.0272 16.0966 40.7064 15.9238 40.3442 15.8054C39.9843 15.687 39.5937 15.6278 39.1723 15.6278C38.5331 15.6278 37.9578 15.7746 37.4465 16.0682C36.9351 16.3594 36.5303 16.7831 36.232 17.3395C35.9337 17.8958 35.7845 18.5705 35.7845 19.3636C35.7845 20.1544 35.9313 20.8279 36.2249 21.3842C36.5208 21.9406 36.9233 22.3655 37.4323 22.6591C37.9436 22.9527 38.5236 23.0994 39.1723 23.0994C39.6387 23.0994 40.0566 23.0296 40.4259 22.8899C40.7976 22.7479 41.1172 22.5561 41.3847 22.3146C41.6546 22.0708 41.8688 21.795 42.0274 21.4872C42.1884 21.1771 42.289 20.8551 42.3293 20.5213L40.7739 20.5142C40.7384 20.7083 40.6744 20.8812 40.5821 21.0327C40.4922 21.1842 40.3785 21.3132 40.2412 21.4197C40.1039 21.5239 39.9465 21.6032 39.7689 21.6577C39.5937 21.7121 39.4031 21.7393 39.1972 21.7393C38.8302 21.7393 38.5071 21.6494 38.2277 21.4695C37.9484 21.2895 37.7306 21.0232 37.5743 20.6705C37.4204 20.3177 37.3435 19.8821 37.3435 19.3636C37.3435 18.8594 37.4204 18.4309 37.5743 18.0781C37.7282 17.723 37.9448 17.4531 38.2242 17.2685C38.5035 17.0814 38.8314 16.9879 39.2078 16.9879C39.4162 16.9879 39.6091 17.0175 39.7867 17.0767C39.9666 17.1359 40.1252 17.2211 40.2625 17.3324C40.3998 17.4437 40.5123 17.5786 40.5999 17.7372C40.6875 17.8935 40.7455 18.0722 40.7739 18.2734ZM44.966 15.7273H43.4319V23H44.7636L47.9241 18.4226H47.9774V23H49.515V15.7273H48.1691L45.0264 20.3011H44.966V15.7273ZM50.7854 15.7273V23H52.3231V19.9957H55.4445V23H56.9786V15.7273H55.4445V18.728H52.3231V15.7273H50.7854ZM57.8522 23H59.4999L60.0394 21.3416H62.6653L63.2037 23H64.8515L62.3444 15.7273H60.3628L57.8522 23ZM62.2756 20.1413L61.382 17.3892H61.3252L60.4299 20.1413H62.2756ZM28.259 31.7273V39H26.7391V32.9773H23.7987V39H22.2789V31.7273H28.259ZM29.7229 39V31.7273H34.6235V32.995H31.2606V34.728H34.3714V35.9957H31.2606V37.7322H34.6377V39H29.7229ZM40.2458 39L37.9092 35.8999H37.3836V39H35.846V31.7273H37.3836V34.6321H37.6926L40.1073 31.7273H42.0214L39.184 35.1009L42.1528 39H40.2458ZM44.1796 39H42.5319L45.0425 31.7273H47.0241L49.5312 39H47.8834L47.345 37.3416H44.7191L44.1796 39ZM46.0617 33.3892L46.9553 36.1413H45.1096L46.0049 33.3892H46.0617ZM50.4065 39V31.7273H53.2758C53.8274 31.7273 54.2974 31.8326 54.6856 32.0433C55.0739 32.2517 55.3698 32.5417 55.5734 32.9134C55.7794 33.2827 55.8824 33.7088 55.8824 34.1918C55.8824 34.6747 55.7782 35.1009 55.5699 35.4702C55.3615 35.8395 55.0597 36.1271 54.6643 36.3331C54.2713 36.5391 53.7955 36.642 53.2368 36.642H51.9442V39H50.4065ZM51.9442 32.9844V35.4098H52.9882C53.2841 35.4098 53.528 35.3589 53.7197 35.2571C53.9139 35.1529 54.0583 35.0097 54.153 34.8274C54.25 34.6428 54.2986 34.4309 54.2986 34.1918C54.2986 33.9503 54.25 33.7396 54.153 33.5597C54.0583 33.3774 53.9139 33.2365 53.7197 33.1371C53.5256 33.0353 53.2794 32.9844 52.9811 32.9844H51.9442ZM56.8811 39V31.7273H58.4188V34.728H61.5402V31.7273H63.0743V39H61.5402V35.9957H58.4188V39H56.8811ZM69.9244 39H68.3904V36.4219H67.2679L65.8904 39H64.1929L65.736 36.1745C65.7139 36.1649 65.6919 36.155 65.6702 36.1449C65.2748 35.9602 64.973 35.6951 64.7646 35.3494C64.5563 35.0014 64.4521 34.5859 64.4521 34.103C64.4521 33.6224 64.5539 33.2045 64.7575 32.8494C64.9635 32.492 65.2606 32.2161 65.6489 32.022C66.0395 31.8255 66.5094 31.7273 67.0587 31.7273H69.9244V39ZM67.3463 35.1861H68.3904V32.9844H67.3534C67.0575 32.9844 66.8113 33.0282 66.6148 33.1158C66.4207 33.201 66.2751 33.3265 66.178 33.4922C66.0809 33.6579 66.0324 33.8615 66.0324 34.103C66.0324 34.3421 66.0809 34.5421 66.178 34.7031C66.2751 34.8641 66.4207 34.9848 66.6148 35.0653C66.8089 35.1458 67.0528 35.1861 67.3463 35.1861Z" fill="#ECCE9E"/>
</svg>
